<?xml version="1.0" encoding="UTF-8"?>
<svg id="Layer_1" data-name="Layer 1" xmlns="http://www.w3.org/2000/svg" viewBox="0 0 150 50">
  <defs>
    <style>
      .cls-1, .cls-2 {
        stroke-width: 0px;
      }

      .cls-2 {
        fill: none;
      }
    </style>
  </defs>
  <rect class="cls-2" width="150" height="50"/>
  <rect class="cls-2" width="150" height="50"/>
  <g>
    <g id="SvgjsG1463">
      <path class="cls-1" d="m31.3,30.7c-.5-1-.9-1.7-1.2-2.3-.8-1.2-1.2-1.9-1.2-4.4-.1-3.7,2.5-10.5,2.5-10.5v-.2c.1,0,0-.2,0-.2,0,0-.9-1-2.4-1.8V1.1h-.8v9.7c-1.5-.7-3.6-1.3-6.2-1.2-1.1,0-2.1.2-2.9.4-1.2.2-2.3.6-3.1,1V1.1h-.8v10.3c-1.5.9-2.3,1.8-2.4,1.8l-.2.2v.2c.1,0,2.8,6.8,2.6,10.5,0,.3,0,.5,0,.8-.2,1.9-.5,2.5-1.2,3.6-.3.5-.8,1.2-1.2,2.3-1,2.2.4,10.8.5,11.2l1.2,6.5h.4c.4-.2,9.8-2.9,13.3-5.3l-.4-.6c-3.1,2-10.9,4.4-12.7,4.9l-1.1-5.6c-.4-2.4-1.4-9.1-.5-10.7.4-1,.9-1.6,1.2-2.2.7-1.1,1.1-1.8,1.3-3.6h3.2c.2.9,1.4,1.5,2.8,1.5s2.7-.7,2.8-1.5h3.5c.2,1.7.7,2.4,1.2,3.4.3.6.8,1.2,1.2,2.2.8,1.7-.1,8.3-.5,10.7h.8c.1-.2,1.6-8.7.5-11Zm-9.4-4.6c-1.2,0-2.1-.5-2.1-1s.9-1,2.1-1,2.1.5,2.1,1c0,.5-.9,1-2.1,1Zm6.2-1.5h-3.5c-.3-.8-1.4-1.2-2.8-1.2s-2.4.5-2.8,1.2h-3.3v-.4c.1-3.5-2-9.4-2.5-10.6h0c0,0,0,0,0,0,0,0,1.8-2.1,5.8-2.9.8-.1,1.7-.2,2.7-.2,5.7.2,8.3,3.1,8.4,3.2h0c-.7,1.6-2.5,7-2.4,10.2.1.3.1.5.1.7Z"/>
    </g>
    <g id="SvgjsG1464">
      <rect class="cls-1" x="145.5" y="16.3" width=".3" height=".3"/>
      <rect class="cls-1" x="36.3" y="16.3" width="1" height="17.1"/>
    </g>
    <g id="SvgjsG1465">
      <path class="cls-1" d="m47.1,24.1h0c0-1.4-.4-2-1.3-2s-.9.2-1.1.7c-.2.5-.3,1.2-.3,2.1s.1,1.6.4,2c.3.4.7.7,1.2.7s.6,0,.9-.2c.3-.1.7-.3,1.1-.6.2.1.4.3.6.6s.3.5.3.7c-.2.2-.4.3-.7.5-.2.2-.5.3-.8.4s-.6.2-.9.3c-.3,0-.6.1-.9.1-.6,0-1.2-.1-1.6-.4-.4-.2-.8-.6-1-1-.3-.4-.5-.9-.6-1.4-.1-.5-.2-1.1-.2-1.6s0-1.4.3-1.9c.2-.5.4-1,.7-1.4s.7-.6,1.1-.8c.4-.2.9-.3,1.4-.3.5,0,.9,0,1.3.2.4.1.7.3,1,.5.3.2.5.5.6.8s.2.6.2,1c0,.7-.4,1.1-1.1,1.1s-.5,0-.7-.1Zm7.7,0v-.9s0-2.3,0-2.3c.3,0,.6,0,1,0,.4,0,.7,0,1,0v8.3c-.3,0-.6,0-1,0s-.7,0-1,0v-3.5s-.6,0-.6,0h-2s0,.9,0,.9v2.6c-.3,0-.6,0-1,0s-.7,0-1,0v-8.3c.3,0,.6,0,1,0,.4,0,.7,0,1,0v3.2s.6,0,.6,0h2Zm3.8,5.1v-8.3c.3,0,.6,0,1,0,.4,0,.7,0,1,0v8.3c-.3,0-.6,0-1,0s-.7,0-1,0Zm8.2-5h0c0-1.4-.4-2-1.3-2s-.9.2-1.1.7c-.2.5-.3,1.2-.3,2.1s.1,1.6.4,2c.3.4.7.7,1.2.7s.6,0,.9-.2c.3-.1.7-.3,1.1-.6.2.1.4.3.6.6s.3.5.3.7c-.2.2-.4.3-.7.5-.2.2-.5.3-.8.4s-.6.2-.9.3c-.3,0-.6.1-.9.1-.6,0-1.2-.1-1.6-.4s-.8-.6-1-1c-.3-.4-.5-.9-.6-1.4-.1-.5-.2-1.1-.2-1.6,0-.7,0-1.4.3-1.9s.4-1,.7-1.4.7-.6,1.1-.8c.4-.2.9-.3,1.4-.3.5,0,.9,0,1.3.2.4.1.7.3,1,.5s.5.5.6.8.2.6.2,1c0,.7-.4,1.1-1.1,1.1s-.5,0-.7-.1Zm9.6,4.5c-.3.4-.7.6-1.3.6s-.6,0-.8-.3c-.2-.2-.3-.5-.4-.9l-.5-1.4c-.1-.4-.3-.7-.4-.8s-.4-.2-.7-.2c0,0-.3,0-.5,0v3.5c-.3,0-.6,0-1,0s-.7,0-1,0v-8.3c.3,0,.6,0,1,0,.4,0,.7,0,1,0v3.2h.3c.1,0,.3,0,.3,0,0,0,.1-.2.2-.3l1.2-2.2c.1-.3.3-.4.4-.5.1-.1.4-.2.6-.2.3,0,.7,0,1.1,0h.1c0,.1-1.5,2.9-1.5,2.9-.2.4-.4.7-.7.9.4,0,.7.2.9.5.2.2.4.5.5.9l.5,1.5c0,.2.1.3.1.4,0,0,.1.2.2.5,0,0,.1.2.2.3h0Zm8.1-4.5h0c0-1.4-.4-2-1.3-2s-.9.2-1.1.7-.3,1.2-.3,2.1.1,1.6.4,2c.3.4.7.7,1.2.7s.6,0,.9-.2c.3-.1.7-.3,1.1-.6.2.1.4.3.6.6s.3.5.3.7c-.2.2-.4.3-.7.5-.2.2-.5.3-.8.4-.3.1-.6.2-.9.3s-.6.1-.9.1c-.6,0-1.2-.1-1.6-.4s-.8-.6-1-1c-.3-.4-.5-.9-.6-1.4-.1-.5-.2-1.1-.2-1.6,0-.7,0-1.4.3-1.9s.4-1,.7-1.4.7-.6,1.1-.8c.4-.2.9-.3,1.4-.3.5,0,.9,0,1.3.2s.7.3,1,.5c.3.2.5.5.6.8.2.3.2.6.2,1,0,.7-.4,1.1-1.1,1.1s-.5,0-.7-.1Zm4.8,2.7c.2.6.7,1,1.3,1s.6,0,.8-.3c.2-.2.4-.4.5-.6.1-.3.2-.5.2-.9s0-.6,0-.9,0-.6,0-1c0-.3,0-.7-.2-1,0-.3-.3-.6-.5-.8-.2-.2-.5-.3-.9-.3s-.7,0-.9.3c-.2.2-.4.4-.5.7s-.2.6-.2.9c0,.3,0,.6,0,.9,0,.4,0,.7,0,1s.1.6.2.9Zm-1,1.7c-.9-.7-1.3-1.9-1.3-3.6s0-1.3.3-1.9c.2-.5.4-1,.7-1.4s.7-.6,1.1-.8,1-.3,1.5-.3c.6,0,1.1,0,1.5.3.5.2.8.5,1.1.8.3.4.6.8.7,1.4.2.5.3,1.2.3,1.9s0,1.3-.3,1.9c-.2.5-.4,1-.7,1.4s-.7.6-1.1.8c-.5.2-1,.3-1.5.3-.9,0-1.7-.3-2.3-.8h0Zm13.8-7.7v5.3c0,1-.3,1.8-.9,2.4s-1.4.8-2.4.8-1.9-.3-2.4-.8c-.6-.6-.9-1.4-.9-2.4v-5.3h0c0,0,.7,0,.7,0,.8,0,1.2.4,1.2,1.2v4.1c0,.6.1,1,.3,1.3.2.3.5.4,1,.4s.8-.1,1-.4c.2-.3.3-.7.3-1.3v-5.3c.3,0,.6,0,1,0,.4,0,.7,0,1,0h0Zm8.3,0h0v8.4c-.3,0-.7.1-1.2.1s-.8,0-1.2,0l-1.9-4.4c-.2-.5-.5-1.1-.7-1.7h0c0,1.2.1,2.4.1,3.7v2.4c-.3,0-.6,0-.9,0s-.7,0-.9,0v-8.3c.3,0,.7-.1,1.1-.1s.8,0,1.2,0l1.9,4.4c.3.8.6,1.4.8,1.9h0c0-1.2-.1-2.4-.1-3.6v-1.5c0-.4,0-.7.3-.9s.4-.3.8-.3h.6Zm5.1,1.7v.9s0,5.8,0,5.8c-.3,0-.6,0-1,0s-.7,0-1,0v-6.7h-.8s-1.3,0-1.3,0c0-.2,0-.5,0-.8,0-.3,0-.6,0-.8h6c0,.2,0,.5,0,.8s0,.5-.2.7c-.2.1-.4.2-.8.2h-1.1s0,0,0,0Zm9.5-1.6v5.3c0,1-.3,1.8-.9,2.4s-1.4.8-2.4.8-1.9-.3-2.4-.8c-.6-.6-.9-1.4-.9-2.4v-5.3h0c0,0,.7,0,.7,0,.8,0,1.2.4,1.2,1.2v4.1c0,.6.1,1,.3,1.3.2.3.5.4,1,.4s.8-.1,1-.4c.2-.3.3-.7.3-1.3v-5.3c.3,0,.6,0,1,0,.4,0,.7,0,1,0Zm7.7,2.6c0,.3,0,.5-.1.8s-.2.5-.3.6-.3.4-.5.5-.4.3-.6.3c.4.2.7.5.9,1.1l.4,1c.1.4.3.7.6.9-.1.2-.3.3-.5.4s-.5.2-.8.2-.5,0-.7-.3c-.2-.2-.3-.5-.5-.9l-.4-1.3c0-.2-.2-.4-.4-.6s-.4-.2-.7-.2h-.5v3.1c-.3,0-.6,0-1,0s-.7,0-1,0v-8.3h0c.7-.1,1.3-.1,1.8-.1.5,0,.9,0,1.1,0,.4,0,.9,0,1.2.2.4.1.7.3.9.5.3.2.5.5.6.8s.2.7.2,1.2h0Zm-4-1.2v2.4c.4,0,.7,0,.9,0s.5,0,.6-.1c.2,0,.3-.2.4-.4s.1-.4.1-.7c0-.8-.4-1.2-1.1-1.2h-.5s-.1,0-.4,0h0Zm7.5,4.5v.9s0,0,0,0c.4,0,.7,0,.9,0h2.8c0,.3,0,.5,0,.7,0,.6-.5.9-1.2.9h-3.2c-.3,0-.6-.1-.8-.3s-.3-.5-.3-.8v-7.2h0c0,0,5.3,0,5.3,0,0,.2,0,.5,0,.8s0,.6-.2.9h-3.3v.9s0,.9,0,.9c.2,0,.5,0,.8,0h1.9c0,.2.1.5.1.8s0,.6-.1.8h-2.7v.9h0Z"/>
    </g>
  </g>
  <rect class="cls-2" width="150" height="50"/>
</svg>